<?xml version="1.0" standalone="no"?>
<!DOCTYPE svg PUBLIC "-//W3C//DTD SVG 20010904//EN"
 "http://www.w3.org/TR/2001/REC-SVG-20010904/DTD/svg10.dtd">
<svg version="1.0" xmlns="http://www.w3.org/2000/svg"
 width="125.000000pt" height="125.000000pt" viewBox="0 0 125.000000 125.000000"
 preserveAspectRatio="xMidYMid meet">

<g transform="translate(0.000000,125.000000) scale(0.100000,-0.100000)"
fill="#000000" stroke="none">
<path d="M635 877 c0 -28 -4 -32 -37 -38 -44 -7 -68 -25 -68 -50 0 -16 8 -19
55 -19 66 0 104 16 111 47 7 25 -15 67 -44 82 -15 8 -17 5 -17 -22z"/>
<path d="M685 779 c-21 -13 -48 -19 -92 -19 -54 0 -63 -3 -68 -21 -4 -11 -5
-23 -2 -25 10 -11 155 -6 176 5 24 13 41 48 34 69 -6 16 -12 15 -48 -9z"/>
<path d="M717 712 c-14 -13 -35 -17 -97 -18 -48 0 -85 -5 -92 -12 -24 -24 7
-33 113 -30 l104 3 3 29 c5 38 -9 50 -31 28z"/>
<path d="M555 616 c-7 -7 -6 -22 2 -46 8 -23 12 -28 12 -14 1 11 5 24 10 30 6
5 5 15 -2 25 -9 12 -15 13 -22 5z m12 -28 c-3 -8 -6 -5 -6 6 -1 11 2 17 5 13
3 -3 4 -12 1 -19z"/>
<path d="M597 599 c2 -15 -1 -30 -7 -34 -6 -3 -7 -11 -3 -18 4 -7 9 -4 14 9 7
17 8 17 8 2 1 -10 5 -18 10 -18 5 0 11 8 13 18 3 9 3 -21 2 -67 -1 -46 -7 -87
-12 -90 -5 -3 -4 -18 4 -36 15 -35 16 -30 18 97 1 61 6 102 14 110 9 9 12 7
13 -12 0 -14 4 -34 9 -45 7 -14 8 -9 4 18 -4 23 -2 43 6 52 9 11 9 18 -3 29
-13 14 -16 14 -23 -2 -4 -9 -8 -20 -8 -24 -1 -3 -5 -10 -10 -15 -5 -4 -6 7 -4
26 4 30 3 32 -8 17 -7 -10 -10 -24 -7 -32 3 -8 0 -14 -7 -14 -8 0 -11 10 -8
28 2 18 0 29 -8 29 -7 0 -10 -11 -7 -28z m80 -11 c-3 -8 -6 -5 -6 6 -1 11 2
17 5 13 3 -3 4 -12 1 -19z m-40 -210 c-3 -8 -6 -5 -6 6 -1 11 2 17 5 13 3 -3
4 -12 1 -19z"/>
<path d="M706 612 c3 -11 1 -29 -5 -41 -7 -12 -8 -21 -2 -21 14 0 25 60 13 72
-8 8 -9 5 -6 -10z"/>
<path d="M602 510 c0 -14 2 -19 5 -12 2 6 2 18 0 25 -3 6 -5 1 -5 -13z"/>
<path d="M650 510 c0 -5 5 -10 10 -10 6 0 10 5 10 10 0 6 -4 10 -10 10 -5 0
-10 -4 -10 -10z"/>
<path d="M671 474 c0 -11 3 -14 6 -6 3 7 2 16 -1 19 -3 4 -6 -2 -5 -13z"/>
<path d="M591 470 c0 -8 4 -24 9 -35 5 -13 9 -14 9 -5 0 8 -4 24 -9 35 -5 13
-9 14 -9 5z"/>
<path d="M610 470 c0 -5 5 -10 10 -10 6 0 10 5 10 10 0 6 -4 10 -10 10 -5 0
-10 -4 -10 -10z"/>
<path d="M650 429 c0 -5 5 -7 10 -4 6 3 10 8 10 11 0 2 -4 4 -10 4 -5 0 -10
-5 -10 -11z"/>
</g>
</svg>
