<?xml version="1.0" standalone="no"?>
<!DOCTYPE svg PUBLIC "-//W3C//DTD SVG 20010904//EN"
 "http://www.w3.org/TR/2001/REC-SVG-20010904/DTD/svg10.dtd">
<svg version="1.0" xmlns="http://www.w3.org/2000/svg"
 width="527.000000pt" height="143.000000pt" viewBox="0 0 527.000000 143.000000"
 preserveAspectRatio="xMidYMid meet">

<g transform="translate(0.000000,143.000000) scale(0.100000,-0.100000)"
fill="#000000" stroke="none">
<path d="M2585 1257 c0 -28 -4 -32 -37 -38 -44 -7 -68 -25 -68 -50 0 -16 8
-19 55 -19 66 0 104 16 111 47 7 25 -15 67 -44 82 -15 8 -17 5 -17 -22z"/>
<path d="M2635 1159 c-21 -13 -48 -19 -92 -19 -54 0 -63 -3 -68 -21 -4 -11 -5
-23 -2 -25 10 -11 155 -6 176 5 24 13 41 48 34 69 -6 16 -12 15 -48 -9z"/>
<path d="M141 1146 c-8 -9 -11 -60 -9 -157 3 -128 5 -144 21 -147 14 -3 17 5
17 52 l0 56 71 0 c74 0 102 9 131 44 37 44 11 127 -47 152 -45 19 -169 19
-184 0z m185 -37 c28 -23 35 -57 19 -88 -17 -33 -39 -41 -117 -41 l-58 0 0 76
0 77 70 -5 c38 -3 77 -11 86 -19z"/>
<path d="M540 1055 c0 -71 5 -115 14 -133 46 -89 152 -104 227 -32 l39 37 0
116 c0 97 -3 117 -15 117 -8 0 -15 -6 -16 -12 0 -7 -1 -57 -3 -112 -2 -97 -3
-99 -34 -127 -46 -42 -107 -41 -148 2 -28 29 -29 34 -32 140 -3 86 -7 109 -18
109 -11 0 -14 -21 -14 -105z"/>
<path d="M987 1153 c-4 -3 -7 -75 -7 -160 0 -146 1 -153 20 -153 18 0 20 8 22
130 l3 129 105 -130 c64 -80 110 -128 120 -127 13 3 15 29 18 161 2 152 2 157
-18 157 -19 0 -20 -6 -20 -126 0 -144 0 -144 -71 -48 -20 28 -43 57 -51 65 -7
8 -30 35 -51 62 -36 44 -55 55 -70 40z"/>
<path d="M1420 1145 c0 -10 16 -15 63 -17 l62 -3 3 -142 c2 -117 5 -143 17
-143 12 0 15 26 17 143 l3 142 63 3 c46 2 62 7 62 17 0 13 -25 15 -145 15
-120 0 -145 -2 -145 -15z"/>
<path d="M1944 1146 c-42 -19 -85 -77 -91 -125 -12 -92 72 -181 171 -181 54 0
89 16 130 59 38 40 47 119 21 175 -35 73 -148 108 -231 72z m152 -35 c17 -10
39 -36 48 -56 58 -121 -85 -236 -197 -159 -42 28 -57 57 -57 111 0 42 23 83
58 105 38 23 110 22 148 -1z"/>
<path d="M2987 1153 c-4 -3 -7 -75 -7 -160 0 -129 2 -153 15 -153 12 0 15 13
15 60 l0 60 54 0 54 0 44 -60 c25 -34 51 -60 61 -60 17 0 17 1 0 30 -9 16 -28
42 -41 57 l-23 27 35 31 c20 16 38 41 41 55 8 38 -25 93 -66 107 -36 13 -171
17 -182 6z m167 -33 c32 -12 51 -50 42 -84 -8 -31 -59 -49 -131 -44 l-50 3 -3
54 c-2 29 -1 60 2 67 6 17 101 19 140 4z"/>
<path d="M3485 1146 c-41 -18 -83 -69 -91 -111 -19 -103 61 -195 171 -195 160
0 228 201 99 290 -43 29 -133 38 -179 16z m151 -35 c32 -20 64 -74 64 -111 0
-70 -66 -130 -143 -130 -40 0 -52 5 -87 38 -36 36 -40 43 -40 90 0 40 5 57 27
82 14 18 36 36 47 40 37 15 100 11 132 -9z"/>
<path d="M3943 1145 c-66 -28 -79 -101 -24 -130 15 -7 60 -18 100 -23 74 -11
121 -32 121 -55 0 -55 -118 -85 -208 -53 -28 10 -44 11 -48 5 -15 -24 55 -49
135 -49 108 1 178 59 147 121 -16 33 -55 49 -144 61 -75 10 -102 24 -102 51 0
44 109 72 185 47 31 -10 39 -10 46 1 20 32 -145 51 -208 24z"/>
<path d="M4385 1145 c-39 -21 -55 -42 -55 -76 0 -39 39 -66 108 -74 31 -4 75
-12 97 -18 35 -11 40 -16 40 -42 0 -24 -7 -33 -35 -47 -40 -20 -112 -23 -159
-7 -17 6 -39 8 -49 4 -14 -5 -12 -9 13 -23 21 -12 54 -17 115 -17 73 0 90 3
117 23 41 29 51 64 29 97 -23 35 -49 46 -135 57 -52 6 -82 15 -95 28 -18 18
-18 20 -3 44 25 37 79 44 201 24 10 -2 21 2 23 9 11 30 -159 45 -212 18z"/>
<path d="M4855 1146 c-42 -18 -83 -69 -91 -111 -18 -99 63 -195 166 -195 57 0
101 21 138 66 27 32 32 47 32 90 0 63 -19 102 -66 133 -44 30 -133 39 -179 17z
m145 -31 c35 -18 70 -73 70 -111 0 -97 -113 -164 -200 -119 -89 46 -96 176
-12 227 34 21 105 22 142 3z"/>
<path d="M2667 1092 c-14 -13 -35 -17 -97 -18 -48 0 -85 -5 -92 -12 -24 -24 7
-33 113 -30 l104 3 3 29 c5 38 -9 50 -31 28z"/>
<path d="M2505 996 c-7 -7 -6 -22 2 -46 8 -23 12 -28 12 -14 1 11 5 24 10 30
6 5 5 15 -2 25 -9 12 -15 13 -22 5z m12 -28 c-3 -8 -6 -5 -6 6 -1 11 2 17 5
13 3 -3 4 -12 1 -19z"/>
<path d="M2547 979 c2 -15 -1 -30 -7 -34 -6 -3 -7 -11 -3 -18 4 -7 9 -4 14 9
7 17 8 17 8 2 1 -10 5 -18 10 -18 5 0 11 8 13 18 3 9 3 -21 2 -67 -1 -46 -7
-87 -12 -90 -5 -3 -4 -18 4 -36 15 -35 16 -30 18 97 1 61 6 102 14 110 9 9 12
7 13 -13 0 -13 4 -33 9 -44 7 -14 8 -9 4 18 -4 23 -2 43 6 52 9 11 9 18 -3 29
-13 14 -16 14 -23 -2 -4 -9 -8 -20 -8 -24 -1 -3 -5 -10 -10 -15 -5 -4 -6 7 -4
26 4 30 3 32 -8 17 -7 -10 -10 -24 -7 -32 3 -8 0 -14 -7 -14 -8 0 -11 10 -8
28 2 18 0 29 -8 29 -7 0 -10 -11 -7 -28z m80 -11 c-3 -8 -6 -5 -6 6 -1 11 2
17 5 13 3 -3 4 -12 1 -19z m-40 -210 c-3 -8 -6 -5 -6 6 -1 11 2 17 5 13 3 -3
4 -12 1 -19z"/>
<path d="M2656 992 c3 -11 1 -29 -5 -41 -7 -12 -8 -21 -2 -21 14 0 25 60 13
72 -8 8 -9 5 -6 -10z"/>
<path d="M2552 890 c0 -14 2 -19 5 -12 2 6 2 18 0 25 -3 6 -5 1 -5 -13z"/>
<path d="M2600 890 c0 -5 5 -10 10 -10 6 0 10 5 10 10 0 6 -4 10 -10 10 -5 0
-10 -4 -10 -10z"/>
<path d="M2621 854 c0 -11 3 -14 6 -6 3 7 2 16 -1 19 -3 4 -6 -2 -5 -13z"/>
<path d="M2541 850 c0 -8 4 -24 9 -35 5 -13 9 -14 9 -5 0 8 -4 24 -9 35 -5 13
-9 14 -9 5z"/>
<path d="M2560 850 c0 -5 5 -10 10 -10 6 0 10 5 10 10 0 6 -4 10 -10 10 -5 0
-10 -4 -10 -10z"/>
<path d="M2600 809 c0 -5 5 -7 10 -4 6 3 10 8 10 11 0 2 -4 4 -10 4 -5 0 -10
-5 -10 -11z"/>
<path d="M1693 395 c0 -22 2 -30 4 -17 2 12 2 30 0 40 -3 9 -5 -1 -4 -23z"/>
<path d="M2153 395 c0 -22 2 -30 4 -17 2 12 2 30 0 40 -3 9 -5 -1 -4 -23z"/>
<path d="M2640 393 c0 -24 3 -33 9 -25 7 12 4 62 -5 62 -2 0 -4 -17 -4 -37z"/>
<path d="M2803 395 c0 -22 2 -30 4 -17 2 12 2 30 0 40 -3 9 -5 -1 -4 -23z"/>
<path d="M3303 395 c0 -22 2 -30 4 -17 2 12 2 30 0 40 -3 9 -5 -1 -4 -23z"/>
<path d="M1760 391 c0 -17 4 -32 8 -35 4 -2 6 11 4 30 -5 42 -12 45 -12 5z"/>
<path d="M2060 401 c0 -6 4 -13 10 -16 6 -3 7 1 4 9 -7 18 -14 21 -14 7z"/>
<path d="M2026 383 c-6 -14 -5 -15 5 -6 7 7 10 15 7 18 -3 3 -9 -2 -12 -12z"/>
<path d="M3446 383 c-6 -14 -5 -15 5 -6 7 7 10 15 7 18 -3 3 -9 -2 -12 -12z"/>
<path d="M2670 386 c0 -2 7 -9 15 -16 13 -11 14 -10 9 4 -5 14 -24 23 -24 12z"/>
<path d="M2903 376 c1 -11 9 -21 17 -23 10 -3 11 -2 4 4 -6 4 -14 15 -17 23
-5 11 -6 9 -4 -4z"/>
</g>
</svg>
